<?xml version="1.0" encoding="utf-8"?>
<!-- Generator: Adobe Illustrator 25.0.0, SVG Export Plug-In . SVG Version: 6.00 Build 0)  -->
<svg version="1.1" id="Layer_1" xmlns="http://www.w3.org/2000/svg" xmlns:xlink="http://www.w3.org/1999/xlink" x="0px" y="0px"
	 width="186.2319031px" height="26.8580761px" viewBox="0 0 186.2319031 26.8580761"
	 style="enable-background:new 0 0 186.2319031 26.8580761;" xml:space="preserve">
<g>
	<g>
		<path d="M181.9306488,3.3433063h-0.9777222v2.5707548h-1.0173798V3.3433063h-0.9777222V2.4400778h2.9728241V3.3433063z"/>
		<path d="M183.9157104,5.169867l-0.4465942-1.2406828v1.9848769h-0.9777222V2.4400778h1.3417511l0.506897,1.4492581
			l0.5417175-1.4492581h1.2622223v3.4739833h-0.997467V3.9291842l-0.4467621,1.2406828H183.9157104z"/>
	</g>
	<g>
		<path d="M15.0108299,2.444437l3.7388134,13.9786034h0.0279655l3.125-13.9786034h3.9618244l-4.77104,19.5308933h-4.4920979
			L12.9182339,7.9409742l-3.599164,14.0343561H4.8267918L0,2.444437h4.1851916l3.0133162,13.9786034h0.0277867L10.9651089,2.444437
			H15.0108299z"/>
		<path d="M37.9745255,16.6462307h-9.5142918c0.1952229,1.4230289,1.3113461,2.5669384,2.9295998,2.5669384
			c1.0601902,0,2.0648098-0.4463768,2.5669384-1.3113461l3.7666016,0.390625
			c-1.1439095,2.7341957-3.5434113,4.0177555-6.3892937,4.0177555c-3.8225327,0-6.6963768-2.8180943-6.6963768-6.724165
			c0-3.90625,2.8180923-6.7243443,6.640625-6.7243443c3.5154457,0,6.6961975,2.2879982,6.6961975,7.6450653V16.6462307z
			 M28.3765163,14.2187614h5.7197247c-0.1952209-1.2833796-1.2833786-2.34375-2.8179131-2.34375
			C29.7436142,11.8750114,28.6554565,12.8516636,28.3765163,14.2187614z"/>
		<path d="M43.192482,21.9753304h-3.6273117V2.444437h3.6273117v6.3057528c0,0.8370028-0.0559311,1.7297573-0.0559311,2.0925961
			c0.6138115-1.0881567,2.1205597-1.9810915,4.0457191-1.9810915c3.515625,0,6.1940689,2.8180943,6.1940689,6.7243443
			c0,3.9060707-2.7064095,6.724165-6.2220345,6.724165c-1.8134766,0-3.3202209-0.8649693-3.9618225-1.953125V21.9753304z
			 M43.1085854,15.5860386c0,1.9529457,1.3393097,3.5154457,3.2644691,3.5154457c1.9253387,0,3.264473-1.5625,3.264473-3.5154457
			c0-1.9810905-1.3391342-3.4878387-3.264473-3.4878387C44.4478951,12.0981998,43.1085854,13.604948,43.1085854,15.5860386z"/>
		<path d="M58.8178406,15.5860386c0-3.90625,3.0412827-6.7243443,6.8358536-6.7243443
			c3.7945633,0,6.8358459,2.8180943,6.8358459,6.7243443c0,3.9060707-3.0412827,6.724165-6.8358459,6.724165
			C61.8591232,22.3102036,58.8178406,19.4921093,58.8178406,15.5860386z M62.444973,15.5860386
			c0,1.9809113,1.3113441,3.4876595,3.2087212,3.4876595c1.8694,0,3.180748-1.5067482,3.180748-3.4876595
			c0-2.009057-1.311348-3.4878387-3.180748-3.4878387C63.7563171,12.0981998,62.444973,13.5769815,62.444973,15.5860386z"/>
		<path d="M74.9731216,5.5694375c0-2.5111868,1.6741791-3.3761551,3.6273041-3.3761551
			c0.9764786,0,2.6506577,0.1674364,2.6506577,0.1674364v3.3202233c0,0-1.1161194-0.1394706-1.5067444-0.1394706
			c-0.6975327,0-1.1439133,0.1674361-1.1439133,1.0601912v2.5949049h2.4552536v3.0690689h-2.4552536v9.7096939h-3.6273041
			v-9.7096939H72.964241V9.1965675h2.0088806V5.5694375z"/>
		<path d="M98.1596451,7.6340671c-1.1996613-1.171875-2.7621613-2.0088773-4.1292572-2.0088773
			c-1.2835617,0-2.4554367,0.6695662-2.4554367,1.8414412c0,0.8929338,0.5580597,1.5904655,2.1205597,2.3157845l1.6182556,0.7534637
			c3.0970306,1.4508162,4.9664383,3.0690689,4.9664383,5.9986668c0,2.9297771-2.4832153,5.7756577-6.7800903,5.7756577
			c-2.9575653,0-5.1616669-1.1439095-7.0032883-2.9295979l2.1485291-2.9018116
			c1.4508133,1.4787807,3.2922592,2.3157845,4.7710342,2.3157845c1.6741867,0,2.7064133-0.9207211,2.7064133-2.1203823
			c0-1.3393126-1.1996613-2.0927753-3.0690689-2.9575644l-1.3670959-0.6417799
			c-2.6228714-1.2276278-4.2690887-3.0133162-4.2690887-5.4687505c0-3.4317279,3.0692444-5.4965372,6.5289383-5.4965372
			c2.2602158,0,4.5759964,1.1161227,6.4454041,2.7343755L98.1596451,7.6340671z"/>
		<path d="M105.219223,15.5860386c0,2.0088768,1.3111649,3.4876595,3.2085342,3.4876595
			c1.3393173,0,2.34375-0.7534637,2.8181-1.953125l3.4039383,1.0601902c-0.8370056,2.5389748-3.3481903,4.1294403-6.25,4.1294403
			c-3.7943878,0-6.8078842-2.8180943-6.8078842-6.724165c0-3.90625,3.0134964-6.7243443,6.8078842-6.7243443
			c2.9018097,0,5.4129944,1.6182528,6.25,4.1574049l-3.4039383,1.0322256c-0.47435-1.171875-1.4787827-1.953125-2.8181-1.953125
			C106.5303879,12.0981998,105.219223,13.5769815,105.219223,15.5860386z"/>
		<path d="M121.0396271,21.9753304h-3.6273117v-9.7096939h-1.7855072V9.1965675h5.4128189V21.9753304z M119.0587158,2.444437
			c1.3111649,0,2.34375,1.0601912,2.34375,2.34375c0,1.3113461-1.0325851,2.3157845-2.34375,2.3157845
			c-1.2835617,0-2.3157883-1.0044384-2.3157883-2.3157845C116.7429276,3.5046282,117.7751541,2.444437,119.0587158,2.444437z"/>
		<path d="M136.1902771,16.6462307h-9.5142822c0.1952209,1.4230289,1.3113403,2.5669384,2.9297791,2.5669384
			c1.0601807,0,2.0644379-0.4463768,2.5667572-1.3113461l3.7667847,0.390625
			c-1.1440887,2.7341957-3.5434265,4.0177555-6.3894806,4.0177555c-3.8223495,0-6.696373-2.8180943-6.696373-6.724165
			c0-3.90625,2.8180923-6.7243443,6.6406174-6.7243443c3.515625,0,6.6961975,2.2879982,6.6961975,7.6450653V16.6462307z
			 M126.5922699,14.2187614h5.7197266c-0.1952209-1.2833796-1.283371-2.34375-2.8179169-2.34375
			C127.9593735,11.8750114,126.8712158,12.8516636,126.5922699,14.2187614z"/>
		<path d="M145.1748352,8.8616943c2.7621613,0,4.7430725,1.7579031,4.7430725,4.7432537v8.3703823h-3.6269531v-7.4496622
			c0-1.6182528-1.0325775-2.2878189-2.1763-2.2878189c-1.060379,0-2.0090637,0.5858479-2.7065887,1.4508162v8.286665h-3.6271362
			V9.1965675h3.5434113v0.5021296c0,0.446557-0.0557556,1.0044394-0.0557556,1.0044394
			C142.2452393,9.5034742,143.6958771,8.8616943,145.1748352,8.8616943z"/>
		<path d="M155.1640167,15.5860386c0,2.0088768,1.3111572,3.4876595,3.2085419,3.4876595
			c1.3393097,0,2.34375-0.7534637,2.8180847-1.953125l3.4039459,1.0601902c-0.8370056,2.5389748-3.3481903,4.1294403-6.25,4.1294403
			c-3.7943878,0-6.8078918-2.8180943-6.8078918-6.724165c0-3.90625,3.013504-6.7243443,6.8078918-6.7243443
			c2.9018097,0,5.4129944,1.6182528,6.25,4.1574049l-3.4039459,1.0322256c-0.4743347-1.171875-1.478775-1.953125-2.8180847-1.953125
			C156.475174,12.0981998,155.1640167,13.5769815,155.1640167,15.5860386z"/>
		<path d="M178.9921417,16.6462307h-9.5142975c0.1952209,1.4230289,1.3111725,2.5669384,2.9295959,2.5669384
			c1.0601959,0,2.0646362-0.4463768,2.5669403-1.3113461l3.7666016,0.390625
			c-1.1439056,2.7341957-3.5434113,4.0177555-6.3894653,4.0177555c-3.8223572,0-6.6961975-2.8180943-6.6961975-6.724165
			c0-3.90625,2.8179169-6.7243443,6.640625-6.7243443c3.5154419,0,6.6961975,2.2879982,6.6961975,7.6450653V16.6462307z
			 M169.3939514,14.2187614h5.7199097c-0.1952362-1.2833796-1.2833862-2.34375-2.8179169-2.34375
			C170.7612305,11.8750114,169.6730652,12.8516636,169.3939514,14.2187614z"/>
	</g>
</g>
</svg>
