<?xml version="1.0" encoding="UTF-8" standalone="no"?>
<svg
   xmlns:svg="http://www.w3.org/2000/svg"
   xmlns="http://www.w3.org/2000/svg"
   id="svg8"
   version="1.1"
   viewBox="0 0 270.93333 270.93333"
   height="1024"
   width="1024">
  <defs
     id="defs2" />
  <metadata
     id="metadata5">

  </metadata>
  <g
     transform="translate(0,-26.066725)"
     id="layer1">
    <g
       transform="matrix(0.26458333,0,0,0.26458333,69.213186,122.56229)"
       id="g3746">
      <polygon
         transform="matrix(78.104739,0,0,78.104739,-1899.6623,-2292.8239)"
         style="fill:none"
         points="35.278,33.279 29.573,30.616 29.573,35.935 "
         id="polygon3734" />
      <path
         class="st2"
         d="m 585.24681,151.42166 c 49.62217,60.06893 90.1033,126.667 120.13763,197.18251 C 572.18846,487.02367 401.12283,587.57362 209.16379,634.58407 162.15337,571.90343 125.58979,503.99963 99.472883,430.8723 371.08851,386.47366 522.56636,224.54894 585.24681,151.42166 Z"
         id="path3776"
         style="fill:#1ac604;stroke-width:13.05844116" />
      <path
         class="st3"
         d="m 213.0814,-330.43473 c -47.01045,62.68048 -84.87996,130.58446 -112.30259,202.40589 225.91093,40.481184 378.6947,155.395444 484.468,280.75641 C 634.86898,92.658764 675.35011,26.060694 705.38444,-44.454817 573.4942,-182.87431 403.73451,-283.42428 213.0814,-330.43473 Z"
         id="path3778"
         style="fill:#6817ff;stroke-width:13.05844116" />
      <path
         d="m -131.66156,437.40157 c -52.23379,-185.42979 -53.53954,-377.388996 1.30528,-571.95968 50.928028,-5.2243 130.5844476,-11.75229 231.13444,5.22431 -74.433082,199.794174 -61.374728,398.28247 -2.612152,560.20703 -75.73899,14.36443 -158.00711,15.66971 -229.828518,6.52961 z"
         id="path3780"
         style="stroke-width:13.05844116" />
    </g>
  </g>
  <style
     type="text/css"
     id="style4518">
        .st0{display:none;fill:#B2B2B2;}
        .st1{fill:none;}
        .st2{fill:#1AC604;}
        .st3{fill:#6817FF;}
    </style>
</svg>
